# AST/ASF file generated using VICON BodyLanguage
# -----------------------------------------------
:version 1.10
:name VICON
:units
  mass 1.0
  length 0.45
  angle deg
:documentation
   .ast/.asf automatically generated from VICON data using
   VICON BodyBuilder and BodyLanguage model FoxedUp or BRILLIANT.MOD
:root
   order TX TY TZ RX RY RZ
   axis XYZ
   position 0 0 0  
   orientation 0 0 0 
:bonedata
  begin
     id 1 
     name lhipjoint
     direction 0.537252 -0.787203 0.302774 
     length 2.29576 
     axis 0 0 0  XYZ
  end
  begin
     id 2 
     name lfemur
     direction 0.34202 -0.939693 0  
     length 7.31114  
     axis 0 0 20  XYZ
    dof rx ry rz
    limits (-160.0 20.0)
           (-70.0 70.0)
           (-60.0 70.0)
  end
  begin
     id 3 
     name ltibia
     direction 0.34202 -0.939693 0   
     length 8.36008   
     axis 0 0 20   XYZ
    dof rx
    limits (-10.0 170.0)
  end
  begin
     id 4 
     name lfoot
     direction 0.0969116 -0.266263 0.959016   
     length 2.16704   
     axis -90 7.62852e-016 20   XYZ
    dof rx rz
    limits (-45.0 90.0)
           (-70.0 20.0)
  end
  begin
     id 5 
     name ltoes
     direction 1.53563e-011 -4.21779e-011 1   
     length 1.08338   
     axis -90 7.62852e-016 20   XYZ
    dof rx
    limits (-90.0 20.0)
  end
  begin
     id 6 
     name rhipjoint
     direction -0.588228 -0.754791 0.290308   
     length 2.39434  
     axis 0 0 0  XYZ 
  end
  begin
     id 7 
     name rfemur
     direction -0.34202 -0.939693 0   
     length 7.45207   
     axis 0 0 -20   XYZ
    dof rx ry rz
    limits (-160.0 20.0)
           (-70.0 70.0)
           (-70.0 60.0)
  end
  begin
     id 8 
     name rtibia
     direction -0.34202 -0.939693 0   
     length 8.03565   
     axis 0 0 -20   XYZ
    dof rx
    limits (-10.0 170.0)
 end
 begin
     id 9 
     name rfoot
     direction -0.107009 -0.294004 0.949795   
     length 2.11509  
     axis -90 -7.62852e-016 -20   XYZ
    dof rx rz
    limits (-45.0 90.0)
           (-20.0 70.0)
  end
  begin
     id 10 
     name rtoes
     direction -1.53533e-011 -4.22004e-011 1   
     length 1.05493   
     axis -90 -7.62852e-016 -20   XYZ
    dof rx
    limits (-90.0 20.0)
  end
  begin
     id 11 
     name lowerback
     direction -0.0115208 0.997969 -0.0626515   
     length 2.03153   
     axis 0 0 0   XYZ
    dof rx ry rz
    limits (-20.0 45.0)
           (-30.0 30.0)
           (-30.0 30.0)
  end
  begin
     id 12 
     name upperback
     direction -0.00423475 0.999974 -0.00583614   
     length 2.03619   
     axis 0 0 0   XYZ
    dof rx ry rz
    limits (-20.0 45.0)
           (-30.0 30.0)
           (-30.0 30.0)
  end
  begin
     id 13 
     name thorax
     direction 0.00289429 0.999728 0.0231573   
     length 2.03921   
     axis 0 0 0   XYZ
    dof rx ry rz
    limits (-20.0 45.0)
           (-30.0 30.0)
           (-30.0 30.0)
  end
  begin
     id 14 
     name lowerneck
     direction 0.0188995 0.987777 0.154721   
     length 1.78836   
     axis 0 0 0   XYZ
    dof rx ry rz
    limits (-20.0 45.0)
           (-30.0 30.0)
           (-30.0 30.0)
  end
  begin
     id 15 
     name upperneck
     direction -0.00612612 0.992995 -0.118   
     length 1.81789   
     axis 0 0 0   XYZ
    dof rx ry rz
    limits (-20.0 45.0)
           (-30.0 30.0)
           (-30.0 30.0)
  end
  begin
     id 16
     name head
     direction -0.00420226 0.998397 -0.0564482  
     length 1.82234  
     axis 0 0 0   XYZ
    dof rx ry rz
    limits (-20.0 45.0)
           (-30.0 30.0)
           (-30.0 30.0)
  end
  begin
     id 17 
     name lclavicle
     direction 0.916488 0.396539 0.0529676  
     length 3.51732  
     axis 0 0 0   XYZ
    dof ry rz
    limits (-20.0 10.0)
           (0.0 20.0)
  end
  begin
     id 18 
     name lhumerus
     direction 1 -4.4896e-011 8.36962e-028   
     length 5.45077   
     axis 180 -30 -90   XYZ
    dof rx ry rz
    limits (-60.0 90.0)
           (-90.0 90.0)
           (-90.0 90.0)
  end
  begin
     id 19
     name lradius
     direction 1 -4.48962e-011 3.01407e-027   
     length 3.05488   
     axis 180 -30 -90   XYZ
    dof rx
    limits (-10.0 170.0)
  end
  begin
     id 20
     name lwrist
     direction 1 -4.49002e-011 4.72961e-027   
     length 1.52744   
     axis -2.72261e-015 90 90   XYZ
    dof ry
    limits (-180.0 0.0)
 end
  begin
     id 21 
     name lhand
     direction 1 -4.4899e-011 9.45681e-027   
     length 0.638818   
     axis -6.0311e-015 90 90   XYZ
    dof rx rz
    limits (-90.0 90.0)
           (-45.0 45.0)
  end
  begin
     id 22 
     name lfingers
     direction 1 -4.48871e-011 1.88632e-026   
     length 0.515032   
     axis -1.20625e-014 90 90   XYZ
    dof rx
    limits (0.0 90.0)
  end
  begin
     id 23
     name lthumb
     direction 0.707107 -6.34964e-011 0.707107   
     length 0.739485   
     axis -90 45 6.32835e-014   XYZ
    dof rx rz
    limits (-45.0 45.0)
           (-45.0 45.0)
  end
  begin
     id 24 
     name rclavicle
     direction -0.949427 0.303202 0.0815894   
     length 3.76167  
     axis 0 0 0   XYZ 
    dof ry rz
    limits (-10.0 20.0)
           (-20.0 0.0)
  end
  begin
     id 25 
     name rhumerus
     direction -1 -4.48971e-011 -6.43969e-018  
     length 4.88702   
     axis 180 30 90   XYZ
    dof rx ry rz
    limits (-90.0 60.0)
           (-90.0 90.0)
           (-90.0 90.0)
  end
  begin
     id 26 
     name rradius
     direction -1 -4.48987e-011 5.46662e-027   
     length 3.22603   
     axis 180 30 90   XYZ
    dof rx
    limits (-10.0 170.0)
  end
  begin
     id 27 
     name rwrist
     direction -1 -4.48956e-011 4.72476e-027   
     length 1.61302   
     axis -2.72261e-015 -90 -90   XYZ
    dof ry
    limits (-180.0 0.0)
  end
  begin
     id 28
     name rhand
     direction -1 -4.4889e-011 9.43571e-027   
     length 0.716293   
     axis -6.0311e-015 -90 -90   XYZ
    dof rx rz
    limits (-90.0 90.0)
           (-45.0 45.0)
  end
  begin
     id 29
     name rfingers
     direction -1 -4.48887e-011 1.88701e-026   
     length 0.577494   
     axis -1.20625e-014 -90 -90   XYZ
    dof rx
    limits (0.0 90.0)
  end
  begin
     id 30
     name rthumb
     direction -0.707107 -6.34825e-011 0.707107   
     length 0.829169   
     axis -90 -45 -6.32835e-014   XYZ
    dof rx rz
    limits (-45.0 45.0)
           (-45.0 45.0)
  end
:hierarchy
  begin
    root lhipjoint rhipjoint lowerback
    lhipjoint lfemur
    lfemur ltibia
    ltibia lfoot
    lfoot ltoes
    rhipjoint rfemur
    rfemur rtibia
    rtibia rfoot
    rfoot rtoes
    lowerback upperback
    upperback thorax
    thorax lowerneck lclavicle rclavicle
    lowerneck upperneck
    upperneck head
    lclavicle lhumerus
    lhumerus lradius
    lradius lwrist
    lwrist lhand lthumb
    lhand lfingers
    rclavicle rhumerus
    rhumerus rradius
    rradius rwrist
    rwrist rhand rthumb
    rhand rfingers
  end

#!OML:ASF F:\VICON\USERDATA\INSTALL\rory3\rory3.ASF
:FULLY-SPECIFIED
:DEGREES
109
root 0.151811 18.2088 1.57396 188.169 76.0222 170.293
lowerback 7.05548 0.262027 -3.01182
upperback 3.61937 0.312573 -3.3438
thorax -0.211791 0.222841 -1.77625
lowerneck -10.9042 12.6585 11.3293
upperneck 22.0698 21.646 -18.782
head 12.6019 9.25835 -5.29263
rclavicle 1.98785e-014 -7.15625e-015
rhumerus -27.015 22.2127 -85.7534
rradius 67.4165
rwrist 0.930482
rhand -15.2739 8.30702
rfingers 7.12502
rthumb 10.9005 -21.39
lclavicle 1.98785e-014 -7.15625e-015
lhumerus -32.4287 -7.86717 75.0216
lradius 62.1842
lwrist 23.4979
lhand -13.0184 30.4769
lfingers 7.12502
lthumb 13.0755 60.047
rfemur -32.4402 -15.338 23.796
rtibia 29.1256
rfoot -16.7766 -2.72299
rtoes -6.26942
lfemur -34.9718 5.72285 -16.3819
ltibia 27.7984
lfoot -9.83706 -9.10818
ltoes -24.3541
110
root 0.112033 18.1909 1.58649 189.056 76.0206 170.705
lowerback 7.40002 0.344392 -3.0753
upperback 3.69707 0.410772 -3.39033
thorax -0.320741 0.275579 -1.79905
lowerneck -11.182 12.6084 11.2212
upperneck 21.8238 21.5051 -18.8663
head 12.5348 9.16506 -5.3146
rclavicle 4.09496e-014 2.62396e-014
rhumerus -26.609 22.5673 -85.2455
rradius 68.1384
rwrist 1.22724
rhand -15.3461 8.51311
rfingers 7.12502
rthumb 10.8309 -21.1876
lclavicle 4.09496e-014 2.62396e-014
lhumerus -32.461 -7.77433 74.6648
lradius 63.0877
lwrist 23.1968
lhand -12.485 30.0511
lfingers 7.12502
lthumb 13.5896 59.5876
rfemur -33.4785 -15.6004 24.2117
rtibia 29.6273
rfoot -16.7048 -2.40076
rtoes -6.20163
lfemur -35.8792 5.77322 -16.3116
ltibia 28.1664
lfoot -9.90225 -9.14191
ltoes -23.9155
111
root 0.0761484 18.172 1.59922 190.038 76.0556 171.221
lowerback 7.65185 0.440343 -3.17281
upperback 3.81249 0.531745 -3.41424
thorax -0.339396 0.33845 -1.78079
lowerneck -11.5297 12.5383 11.0741
upperneck 21.5907 21.3346 -18.9341
head 12.4748 9.05194 -5.32689
rclavicle -1.59028e-014 -1.03368e-014
rhumerus -26.1494 22.9429 -84.6587
rradius 68.9234
rwrist 1.37733
rhand -15.2051 8.76428
rfingers 7.12502
rthumb 10.967 -20.9293
lclavicle -1.59028e-014 -1.03368e-014
lhumerus -32.4632 -7.70467 74.4034
lradius 64.0275
lwrist 23.3801
lhand -11.9195 30.345
lfingers 7.12502
lthumb 14.1346 59.8442
rfemur -34.532 -15.8666 24.6789
rtibia 30.1553
rfoot -16.6156 -2.04931
rtoes -6.38031
lfemur -36.7585 5.92094 -16.2463
ltibia 28.523
lfoot -9.96695 -9.21534
ltoes -23.9804
112
root 0.0389245 18.1524 1.6119 190.454 75.9759 171.179
lowerback 7.99515 0.469858 -3.44701
upperback 3.86564 0.542602 -3.41017
thorax -0.475043 0.344643 -1.62794
lowerneck -11.6887 12.4749 10.876
upperneck 21.3239 21.2026 -19.0117
head 12.3659 8.9682 -5.33712
rclavicle -2.78299e-015 -3.97569e-015
rhumerus -25.7835 23.4746 -84.0687
rradius 69.6899
rwrist 1.51979
rhand -15.2453 9.039
rfingers 7.12502
rthumb 10.9282 -20.6566
lclavicle -2.78299e-015 -3.97569e-015
lhumerus -32.6862 -7.68144 74.2621
lradius 65.0381
lwrist 23.9179
lhand -12.4055 30.7428
lfingers 7.12502
lthumb 13.6662 60.2741
rfemur -35.5715 -16.2001 24.9943
rtibia 30.721
rfoot -16.5642 -1.74966
rtoes -6.33692
lfemur -37.6304 5.8793 -16.2849
ltibia 28.8982
lfoot -10.0363 -9.37042
ltoes -23.8402
113
root 0.00157099 18.1313 1.62555 191.028 75.908 171.303
lowerback 8.29441 0.540183 -3.7841
upperback 3.96648 0.607415 -3.35672
thorax -0.537711 0.376071 -1.39279
lowerneck -11.9342 12.3724 10.7285
upperneck 21.0851 21.0238 -19.1496
head 12.2934 8.85618 -5.3837
rclavicle -6.36111e-015 7.95139e-014
rhumerus -25.3677 23.9456 -83.4506
rradius 70.5169
rwrist 1.73577
rhand -15.5159 8.78717
rfingers 7.12502
rthumb 10.6671 -20.9221
lclavicle -6.36111e-015 7.95139e-014
lhumerus -32.6308 -7.60214 74.1264
lradius 65.8486
lwrist 23.8982
lhand -12.933 30.2713
lfingers 7.12502
lthumb 13.1578 59.8361
rfemur -36.6126 -16.4313 25.34
rtibia 31.3014
rfoot -16.5537 -1.5655
rtoes -6.27629
lfemur -38.5104 5.92978 -16.3041
ltibia 29.2604
lfoot -10.1511 -9.58673
ltoes -23.5415
114
root -0.0337735 18.108 1.63961 191.395 75.8324 171.354
lowerback 8.80486 0.620655 -4.05672
upperback 4.0669 0.677935 -3.36406
thorax -0.716073 0.414705 -1.26103
lowerneck -12.2085 12.2647 10.6021
upperneck 20.9387 20.8277 -19.1972
head 12.2486 8.73953 -5.40412
rclavicle 1.35174e-014 3.49861e-014
rhumerus -24.9759 24.227 -82.9071
rradius 71.3134
rwrist 1.96197
rhand -15.4622 8.5593
rfingers 7.12502
rthumb 10.7189 -21.1472
lclavicle 1.35174e-014 3.49861e-014
lhumerus -32.4193 -7.51661 73.9068
lradius 66.4683
lwrist 23.8362
lhand -12.7362 29.9338
lfingers 7.12502
lthumb 13.3475 59.4863
rfemur -37.4931 -16.6447 25.6084
rtibia 31.9075
rfoot -16.6059 -1.34752
rtoes -5.97285
lfemur -39.2263 6.00153 -16.3481
ltibia 29.6276
lfoot -10.3007 -9.71393
ltoes -23.0693
115
root -0.0679826 18.0839 1.65275 191.719 75.7532 171.335
lowerback 9.44895 0.681828 -4.20621
upperback 4.0403 0.710821 -3.49319
thorax -1.09675 0.439992 -1.3253
lowerneck -12.4969 12.2046 10.6148
upperneck 20.9443 20.662 -19.0944
head 12.2648 8.64983 -5.38692
rclavicle -4.77083e-015 -1.03368e-014
rhumerus -24.6879 24.4972 -82.5775
rradius 72.0135
rwrist 2.04579
rhand -15.4559 8.44358
rfingers 7.12502
rthumb 10.725 -21.2626
lclavicle -4.77083e-015 -1.03368e-014
lhumerus -32.3684 -7.57108 73.5732
lradius 67.0273
lwrist 24.1049
lhand -12.7201 29.9499
lfingers 7.12502
lthumb 13.363 59.5014
rfemur -38.4228 -16.9099 25.9007
rtibia 32.5064
rfoot -16.6492 -1.13597
rtoes -6.08997
lfemur -39.9718 6.08063 -16.4319
ltibia 30.0348
lfoot -10.4652 -9.87888
ltoes -22.1807
